<svg version="1.0" xmlns="http://www.w3.org/2000/svg"
 width="500" height="500" viewBox="0 0 500 500"
 preserveAspectRatio="xMidYMid meet">
<g transform="translate(0.000000,500.000000) scale(0.100000,-0.100000)"
fill="#ffffff" stroke="none">
<path d="M2639 4366 c-3 -3 -48 -11 -100 -19 -118 -18 -169 -40 -169 -73 0
-17 11 -31 38 -47 54 -35 76 -39 123 -27 22 6 43 9 46 6 3 -3 -4 -54 -16 -113
-40 -204 -61 -362 -87 -669 -13 -140 11 -177 112 -175 81 1 98 15 118 103 31
143 46 267 56 459 5 107 13 242 16 302 l7 107 128 0 c123 0 129 1 158 26 19
15 31 35 31 50 0 40 -39 56 -158 65 -117 9 -296 12 -303 5z m283 -55 c59 -4
111 -11 115 -15 18 -17 -31 -26 -152 -26 -71 0 -135 -4 -141 -8 -11 -7 -14
-47 -34 -444 -11 -223 -47 -472 -73 -505 -5 -7 -31 -13 -58 -13 -47 0 -48 1
-55 36 -3 19 -1 86 5 147 6 62 14 139 17 172 9 100 63 422 84 505 11 43 20 83
20 89 0 14 -83 14 -130 1 -27 -8 -39 -6 -59 7 -24 16 -24 16 -5 24 11 4 60 12
109 18 48 6 90 13 93 16 7 7 136 5 264 -4z"/>
<path d="M1781 4291 c-29 -11 -69 -32 -88 -47 -39 -30 -39 -19 1 -179 35 -137
53 -267 71 -490 18 -233 18 -241 -2 -192 -13 32 -19 37 -49 37 -21 0 -37 -6
-42 -17 -9 -15 -12 -15 -33 -1 -65 43 -183 167 -273 288 -108 147 -289 335
-330 346 -43 11 -96 -5 -134 -41 l-37 -34 2 -92 c4 -135 32 -324 59 -397 13
-35 31 -102 40 -150 9 -48 27 -116 41 -152 14 -36 38 -103 55 -150 39 -110 52
-130 86 -130 42 0 93 32 114 70 24 46 23 98 -6 208 l-24 93 41 20 c23 12 50
28 60 37 16 15 21 12 70 -35 67 -65 126 -94 203 -101 110 -8 172 33 175 118 1
26 4 19 10 -24 11 -75 29 -96 85 -96 55 0 93 17 100 46 3 13 3 47 -1 76 -3 29
-7 100 -8 156 l-2 104 40 13 c50 17 124 95 160 169 33 67 44 186 25 267 -15
67 -62 168 -97 209 -65 78 -206 110 -312 71z m212 -60 c89 -43 164 -210 155
-343 -9 -122 -99 -251 -191 -273 l-42 -11 0 -129 c0 -72 3 -155 5 -185 l5 -55
-36 -3 c-35 -3 -37 -1 -43 31 -4 19 -17 163 -31 319 -23 265 -50 442 -89 570
l-13 45 30 18 c82 49 171 54 250 16z m-932 -277 c56 -41 174 -176 279 -319
104 -141 270 -299 337 -319 19 -6 24 -2 29 21 7 25 8 25 15 8 25 -65 -4 -105
-80 -113 -67 -6 -139 28 -223 107 l-67 62 -48 -37 c-26 -20 -63 -44 -81 -52
-18 -9 -35 -26 -38 -38 -3 -12 7 -67 22 -123 21 -81 25 -110 18 -138 -9 -37
-54 -80 -72 -69 -6 3 -20 37 -32 74 -13 37 -37 103 -55 147 -18 44 -38 112
-44 150 -7 39 -25 111 -41 160 -42 132 -79 411 -60 461 9 23 53 53 79 54 7 0
35 -16 62 -36z"/>
<path d="M1816 4214 c-9 -8 -16 -21 -16 -27 0 -7 18 -79 40 -162 22 -82 45
-188 50 -233 13 -123 43 -144 99 -73 60 76 78 150 61 256 -12 77 -49 167 -83
204 -43 47 -121 65 -151 35z m81 -47 c56 -32 104 -145 106 -252 1 -57 -3 -78
-23 -112 -13 -24 -27 -43 -32 -43 -4 0 -8 21 -8 48 0 26 -18 112 -40 192 -51
186 -51 194 -3 167z"/>
<path d="M1091 3711 c-10 -23 -8 -42 13 -117 14 -49 28 -107 31 -129 9 -54 34
-113 53 -120 8 -3 48 10 88 29 l74 35 -78 103 c-42 57 -95 131 -117 165 -22
35 -43 63 -46 63 -4 0 -12 -13 -18 -29z"/>
<path d="M3390 4217 c-17 -8 -29 -27 -38 -57 -13 -46 -114 -303 -174 -445 -19
-44 -61 -143 -93 -220 -32 -77 -66 -150 -76 -162 -23 -31 -32 -88 -19 -113 17
-31 70 -60 111 -60 70 0 109 54 198 273 73 179 72 177 95 177 47 0 46 -10 -30
-220 -87 -240 -90 -266 -33 -312 35 -28 38 -29 79 -17 52 16 69 41 106 158 15
47 50 131 77 186 27 55 65 141 84 190 19 50 45 108 58 131 70 121 134 309 119
348 -11 27 -117 52 -157 37 -16 -6 -47 -60 -111 -192 -49 -101 -91 -186 -93
-188 -1 -2 -14 1 -28 7 l-25 11 29 78 c16 43 43 129 60 190 28 99 31 116 19
140 -24 50 -112 83 -158 60z m101 -73 c15 -19 7 -56 -62 -271 -27 -84 -49
-155 -49 -157 0 -9 95 -36 125 -36 29 0 34 5 50 48 10 26 49 111 87 190 l69
142 44 0 c40 0 45 -3 45 -22 0 -44 -22 -104 -85 -233 -35 -71 -75 -159 -88
-195 -13 -36 -48 -112 -76 -170 -29 -58 -68 -153 -88 -212 -26 -80 -41 -109
-56 -114 -26 -8 -67 15 -67 38 0 10 32 104 70 210 78 213 89 258 68 275 -19
15 -95 32 -119 26 -24 -7 -32 -21 -104 -198 -70 -173 -109 -243 -139 -251 -24
-6 -70 9 -81 25 -3 6 12 48 33 94 22 45 62 134 88 197 26 63 51 119 55 124 5
6 9 16 9 23 0 8 14 44 31 81 45 96 136 325 144 364 11 49 21 58 55 46 16 -5
34 -16 41 -24z"/>
<path d="M4072 3859 c-43 -79 -120 -187 -244 -346 -75 -94 -174 -225 -221
-291 -47 -65 -93 -124 -101 -131 -9 -8 -16 -28 -16 -46 0 -31 9 -40 118 -121
138 -102 199 -134 263 -134 107 0 105 103 -4 156 -56 27 -147 90 -147 102 0 4
40 50 89 102 l88 95 64 -32 c93 -47 111 -49 144 -20 26 22 28 26 16 53 -10 26
-83 84 -126 100 -8 3 -15 12 -15 18 0 9 196 279 236 325 2 2 12 -3 21 -11 32
-27 127 -76 170 -87 54 -15 103 6 103 43 0 30 -15 42 -138 111 -57 31 -118 70
-135 85 -35 30 -98 60 -129 60 -11 0 -26 -13 -36 -31z m114 -60 c36 -28 88
-60 217 -133 27 -15 46 -30 43 -33 -8 -8 -110 42 -177 88 -52 35 -64 40 -73
27 -6 -8 -54 -70 -107 -139 -162 -211 -194 -260 -178 -270 8 -5 44 -28 82 -51
37 -22 70 -44 73 -49 13 -22 -37 -5 -105 35 l-74 43 -104 -115 c-57 -63 -112
-127 -123 -142 l-20 -29 63 -45 c35 -25 90 -60 123 -78 106 -60 70 -96 -38
-39 -53 27 -248 168 -248 179 0 2 6 10 14 16 7 6 55 69 107 140 51 71 143 193
204 270 124 159 191 251 225 314 13 23 31 42 40 42 10 0 35 -14 56 -31z"/>
<path d="M523 3518 c-6 -7 -13 -21 -16 -30 -3 -9 -67 -63 -142 -119 -177 -133
-295 -243 -295 -275 0 -14 -7 -35 -16 -49 -18 -28 -7 -60 26 -70 11 -3 70 -69
132 -146 62 -78 127 -158 143 -178 69 -85 180 -203 210 -221 18 -11 45 -20 61
-20 39 0 92 34 99 62 16 70 22 124 15 142 -5 12 -40 54 -78 94 -39 39 -68 72
-66 72 10 0 -29 35 -50 45 -11 5 -23 22 -27 37 -4 15 -21 44 -38 65 -17 21
-31 42 -31 48 0 5 -14 28 -31 50 l-29 39 37 22 c21 12 54 32 73 44 l34 22 28
-34 c16 -18 65 -80 110 -138 189 -241 210 -265 248 -283 69 -31 111 2 137 107
19 81 15 93 -68 190 -32 38 -48 64 -44 75 3 12 -3 22 -21 32 -15 8 -35 33 -46
58 -30 70 -83 136 -165 203 -41 35 -91 86 -109 115 -34 53 -61 67 -81 41z m54
-97 c10 -15 48 -53 84 -84 93 -78 144 -139 170 -203 13 -30 26 -54 31 -54 4 0
8 -6 8 -14 0 -8 20 -36 45 -64 25 -27 45 -54 45 -60 0 -5 13 -24 29 -41 26
-28 28 -35 20 -70 -16 -73 -27 -91 -53 -91 -26 0 -86 68 -246 280 -119 157
-184 214 -205 180 -3 -5 -18 -10 -33 -10 -18 0 -44 -16 -76 -45 -27 -25 -52
-45 -55 -45 -3 0 -12 -4 -19 -9 -11 -6 -4 -22 31 -67 51 -68 77 -115 77 -142
0 -10 16 -33 35 -52 19 -19 35 -42 35 -52 0 -10 4 -18 9 -18 6 0 48 -38 95
-84 91 -88 95 -98 76 -167 -12 -44 -49 -59 -85 -35 -24 16 -166 168 -212 227
-74 95 -190 238 -222 272 -27 28 -36 47 -38 79 -3 39 1 44 60 100 34 32 128
109 210 170 81 62 147 116 147 120 0 17 19 6 37 -21z"/>
<path d="M4535 3285 c-108 -109 -187 -177 -344 -295 -244 -184 -281 -217 -281
-255 0 -32 67 -105 97 -105 20 0 93 45 105 65 4 7 47 40 96 73 l87 60 31 -27
c36 -33 145 -56 225 -49 100 9 167 43 244 122 95 96 135 176 135 265 0 113
-54 198 -164 261 -28 17 -60 29 -71 29 -12 -1 -79 -61 -160 -144z m215 64 c56
-34 81 -61 106 -114 46 -97 24 -184 -75 -302 -88 -105 -205 -148 -337 -123
-54 10 -74 20 -102 47 -19 19 -40 32 -48 29 -22 -8 -184 -121 -239 -165 l-50
-41 -23 27 -23 28 45 41 c25 23 135 109 243 190 139 105 235 186 323 275 69
69 130 126 135 127 6 1 26 -8 45 -19z"/>
<path d="M4632 3188 c-56 -62 -134 -140 -174 -174 -51 -42 -74 -68 -76 -86 -4
-32 14 -39 106 -41 58 -1 76 4 130 33 67 36 151 118 181 179 31 61 34 106 12
156 -17 38 -24 45 -49 45 -24 0 -45 -18 -130 -112z m140 28 c16 -83 -113 -238
-225 -271 -23 -6 -53 -9 -67 -5 -24 6 -24 7 20 40 25 19 92 85 149 147 57 62
107 113 111 113 4 0 10 -11 12 -24z"/>
<path d="M240 1790 c-20 -20 -20 -33 -20 -655 0 -622 0 -635 20 -655 19 -19
33 -20 443 -20 413 0 545 7 638 34 117 35 204 103 245 192 83 177 43 368 -93
454 -26 17 -42 30 -35 30 20 0 92 71 115 114 32 59 31 219 -1 290 -46 103
-109 157 -226 195 -103 34 -214 41 -648 41 -405 0 -419 -1 -438 -20z m795
-335 c19 -18 25 -35 25 -65 0 -30 -6 -47 -25 -65 -23 -24 -28 -25 -170 -25
l-145 0 0 90 0 90 145 0 c142 0 147 -1 170 -25z m30 -500 c35 -34 35 -101 0
-139 l-24 -26 -161 0 -160 0 0 95 0 95 160 0 c157 0 161 -1 185 -25z"/>
<path d="M2214 1800 c-12 -5 -25 -13 -28 -19 -12 -19 -436 -1268 -436 -1284 0
-33 36 -38 239 -35 234 4 225 0 268 119 l28 79 238 -2 239 -3 24 -65 c34 -91
43 -106 71 -119 15 -7 97 -11 218 -11 163 0 196 3 209 16 9 8 16 18 16 20 0 3
-97 289 -215 637 -172 506 -220 636 -241 655 -25 22 -28 22 -317 21 -161 0
-302 -4 -313 -9z m381 -564 c36 -103 65 -192 65 -197 0 -5 -60 -9 -135 -9
-109 0 -135 3 -135 14 0 8 25 87 56 176 69 202 74 214 79 208 2 -2 34 -89 70
-192z"/>
<path d="M3438 1799 c-17 -9 -18 -52 -18 -664 0 -637 1 -655 19 -665 13 -7
256 -10 720 -10 623 0 701 2 715 16 14 14 16 88 16 664 0 632 -1 650 -19 660
-11 6 -90 10 -185 10 -153 0 -168 -2 -186 -20 -19 -19 -20 -33 -20 -470 l0
-450 -70 0 -70 0 0 453 c0 427 -1 455 -18 470 -16 14 -43 17 -168 17 -105 0
-155 -4 -167 -12 -15 -12 -17 -54 -19 -468 l-3 -455 -70 0 -70 0 -3 455 c-2
414 -4 456 -19 468 -21 15 -339 17 -365 1z"/>
</g>
</svg>
