<svg version="1.0" xmlns="http://www.w3.org/2000/svg"
 width="150" height="150" viewBox="0 0 150 150"
 preserveAspectRatio="xMidYMid meet">
<g transform="translate(0.000000,150.000000) scale(0.030000,-0.030000)"
fill="#ffffff" stroke="none">
<path d="M2505 3835 c-5 -2 -27 -6 -47 -10 -57 -9 -46 -45 14 -45 16 0 19 -5
14 -27 -16 -84 -26 -156 -28 -223 l-3 -75 35 0 35 0 11 65 c7 36 12 94 13 130
1 36 4 82 7 103 7 37 7 37 55 37 46 0 70 13 53 30 -9 8 -141 20 -159 15z m140
-25 c4 -6 -15 -10 -49 -10 l-56 0 0 -74 c0 -85 -17 -222 -31 -248 -5 -10 -16
-18 -24 -18 -12 0 -15 14 -15 58 0 54 19 193 35 256 8 28 7 29 -23 23 -17 -4
-34 -2 -37 3 -7 12 25 17 117 19 42 0 80 -3 83 -9z"/>
<path d="M2195 3798 c-11 -6 -21 -12 -23 -13 -1 -1 4 -33 12 -71 19 -90 31
-244 18 -225 -6 8 -17 11 -26 8 -11 -4 -35 16 -78 65 -144 164 -159 175 -193
141 -14 -13 -16 -28 -11 -75 11 -96 67 -291 87 -303 5 -3 18 -1 30 5 18 10 20
19 17 67 -4 72 14 87 61 52 39 -29 95 -31 116 -3 12 17 14 17 15 2 0 -21 14
-30 34 -22 12 5 16 21 16 69 0 56 3 64 21 70 52 17 76 120 43 189 -25 51 -89
72 -139 44z m98 -18 c58 -46 59 -138 2 -189 -33 -28 -35 -34 -35 -91 0 -45 -3
-60 -14 -60 -15 0 -17 12 -31 168 -3 31 -11 81 -17 111 -11 48 -10 55 7 67 27
20 58 17 88 -6z m-333 -90 c11 -6 48 -47 84 -93 68 -87 119 -132 137 -121 7 4
10 -1 7 -12 -5 -30 -53 -30 -93 0 -40 31 -43 31 -74 7 -22 -17 -23 -21 -12
-54 13 -40 7 -77 -13 -77 -19 0 -82 212 -87 295 -4 61 11 77 51 55z"/>
<path d="M2760 3769 c0 -10 -84 -216 -117 -286 -19 -40 -11 -63 20 -63 31 0
42 13 71 86 13 33 31 60 40 62 14 3 13 -7 -9 -63 -27 -72 -31 -110 -15 -120
20 -12 47 6 57 38 6 17 36 89 67 159 31 70 56 134 56 142 0 11 -9 16 -30 16
-27 0 -33 -7 -62 -65 -32 -64 -56 -87 -45 -42 3 12 11 43 18 68 7 26 9 54 6
63 -7 18 -57 22 -57 5z m46 -12 c2 -7 -4 -42 -15 -77 -21 -68 -20 -80 9 -80
13 0 27 19 49 65 18 39 36 65 45 65 26 0 19 -31 -37 -156 -30 -65 -59 -131
-65 -146 -6 -16 -18 -28 -27 -28 -20 0 -20 3 12 93 24 67 26 79 13 87 -28 18
-38 10 -62 -50 -29 -75 -51 -105 -71 -97 -13 5 -4 32 49 157 35 83 64 157 64
165 0 18 29 20 36 2z"/>
<path d="M2996 3643 c-8 -16 -55 -81 -105 -147 -102 -133 -101 -127 -22 -178
81 -51 130 -24 51 28 l-39 26 31 39 c30 37 31 38 60 23 48 -25 69 8 23 37
l-25 15 39 53 c22 30 42 56 45 58 3 3 15 -2 28 -11 24 -17 78 -22 78 -8 0 8
-132 92 -144 92 -3 0 -12 -12 -20 -27z m83 -25 c57 -35 64 -51 8 -18 l-36 21
-51 -68 -51 -68 28 -22 c31 -25 20 -32 -14 -8 -20 14 -24 12 -63 -32 l-42 -48
25 -20 c13 -11 33 -25 43 -31 10 -7 16 -15 12 -19 -7 -8 -52 15 -91 47 l-28
23 103 137 c57 76 104 138 105 138 1 0 25 -14 52 -32z"/>
<path d="M1768 3531 c-1 -5 -35 -34 -74 -65 -79 -61 -97 -96 -66 -124 10 -9
48 -52 83 -95 68 -83 103 -103 126 -72 21 29 16 47 -27 93 -22 24 -40 45 -40
48 0 3 -10 18 -22 35 -23 30 -23 31 -4 45 11 8 23 14 28 14 4 0 37 -36 74 -80
36 -44 72 -80 80 -80 15 0 34 30 34 54 0 25 -68 125 -124 184 -51 52 -62 59
-68 43z m142 -165 c36 -57 42 -96 15 -96 -7 0 -40 36 -75 80 -35 44 -68 80
-74 80 -6 0 -26 -9 -44 -20 l-33 -20 20 -27 c12 -14 21 -31 21 -37 0 -6 20
-32 45 -58 44 -47 56 -80 34 -93 -5 -4 -20 1 -31 12 -31 27 -158 181 -158 190
0 12 53 62 109 105 l44 34 45 -46 c24 -25 61 -72 82 -104z"/>
<path d="M3184 3468 c-21 -22 -83 -74 -136 -114 -54 -41 -98 -79 -98 -84 0
-16 31 -40 43 -33 7 4 30 20 51 35 31 22 42 26 53 16 22 -18 106 -15 137 6 55
36 82 117 56 167 -6 10 -23 25 -39 33 -27 15 -29 14 -67 -26z m80 -9 c14 -17
26 -41 26 -53 0 -27 -42 -86 -73 -103 -30 -17 -88 -16 -114 2 -20 14 -25 13
-68 -20 -41 -32 -65 -38 -65 -16 0 4 37 34 83 68 45 34 102 82 127 107 24 25
47 46 51 46 4 0 19 -14 33 -31z"/>
<path d="M1675 2938 c-3 -7 -4 -112 -3 -233 l3 -220 150 -3 c221 -4 290 16
315 94 16 46 5 97 -25 126 -24 23 -24 23 -4 44 47 50 26 140 -41 179 -31 17
-57 20 -212 24 -145 3 -179 1 -183 -11z"/>
<path d="M2351 2932 c-12 -22 -151 -431 -151 -444 0 -5 35 -8 78 -6 76 3 77 3
91 36 l15 32 83 0 c82 0 84 -1 94 -27 14 -38 25 -43 102 -43 48 0 67 4 67 13
0 21 -138 428 -151 443 -8 10 -38 14 -115 14 -89 0 -105 -2 -113 -18z"/>
<path d="M2785 2938 c-3 -8 -4 -112 -3 -233 l3 -220 250 0 250 0 0 230 0 230
-65 0 -65 0 -3 -162 -2 -163 -25 0 -25 0 -2 163 -3 162 -60 0 -60 0 -3 -162
-2 -163 -25 0 -25 0 -2 163 -3 162 -63 3 c-45 2 -64 -1 -67 -10z"/>
</g>
</svg>
